<?xml version="1.0" standalone="no"?><!DOCTYPE svg PUBLIC "-//W3C//DTD SVG 1.1//EN" "http://www.w3.org/Graphics/SVG/1.1/DTD/svg11.dtd"><svg t="1658132164695" class="icon" viewBox="0 0 1024 1024" version="1.1" xmlns="http://www.w3.org/2000/svg" p-id="13191" xmlns:xlink="http://www.w3.org/1999/xlink" width="128" height="128"><defs><style type="text/css">@font-face { font-family: feedback-iconfont; src: url("//at.alicdn.com/t/font_1031158_u69w8yhxdu.woff2?t=1630033759944") format("woff2"), url("//at.alicdn.com/t/font_1031158_u69w8yhxdu.woff?t=1630033759944") format("woff"), url("//at.alicdn.com/t/font_1031158_u69w8yhxdu.ttf?t=1630033759944") format("truetype"); }
</style></defs><path d="M74.24 479.530667c63.829333-23.338667 128.213333-29.098667 193.194667-17.237334 73.130667 13.312 137.514667 47.018667 193.152 101.12 54.101333 55.637333 87.808 120.021333 101.12 193.152 11.861333 64.981333 6.101333 129.365333-17.237334 193.152 103.424-7.253333 196.266667-49.536 278.4-126.848 77.312-82.176 119.637333-174.976 126.848-278.442666a365.610667 365.610667 0 0 1-185.728 17.877333c-75.818667-12.202667-142.634667-46.08-200.533333-101.717333-55.637333-57.898667-89.557333-124.757333-101.76-200.576a365.610667 365.610667 0 0 1 17.877333-185.728c-103.466667 7.253333-196.266667 49.493333-278.442666 126.848-77.312 82.176-119.594667 174.933333-126.848 278.4z m1.28 79.36c10.026667 97.621333 51.882667 185.6 125.610667 263.978666 78.336 73.728 166.357333 115.626667 264.021333 125.610667 26.026667-55.04 34.602667-111.573333 25.685333-169.642667-9.514667-62.08-37.12-116.352-82.816-162.858666-46.506667-45.653333-100.778667-73.301333-162.858666-82.816-58.026667-8.96-114.602667-0.341333-169.642667 25.685333zM558.08 75.434667a291.584 291.584 0 0 0-25.557333 163.413333c8.405333 64 36.181333 120.32 83.456 169.088 48.725333 47.274667 105.130667 75.093333 169.130666 83.456a291.584 291.584 0 0 0 163.413334-25.6C938.666667 367.957333 896.768 279.722667 822.869333 201.173333 744.362667 127.232 656.085333 85.333333 558.08 75.434667zM149.76 874.24C49.877333 769.152 0 648.362667 0 512c0-136.362667 49.92-257.152 149.717333-362.282667C254.848 49.877333 375.637333 0 512 0c136.362667 0 257.152 49.92 362.282667 149.717333C974.122667 254.848 1024 375.637333 1024 512c0 136.362667-49.92 257.152-149.717333 362.282667C769.152 974.122667 648.362667 1024 512 1024c-136.362667 0-257.152-49.92-362.282667-149.717333z" p-id="13192"></path></svg>