<?xml version="1.0" standalone="no"?><!DOCTYPE svg PUBLIC "-//W3C//DTD SVG 1.1//EN" "http://www.w3.org/Graphics/SVG/1.1/DTD/svg11.dtd"><svg t="1658132053194" class="icon" viewBox="0 0 1024 1024" version="1.1" xmlns="http://www.w3.org/2000/svg" p-id="13036" xmlns:xlink="http://www.w3.org/1999/xlink" width="128" height="128"><defs><style type="text/css">@font-face { font-family: feedback-iconfont; src: url("//at.alicdn.com/t/font_1031158_u69w8yhxdu.woff2?t=1630033759944") format("woff2"), url("//at.alicdn.com/t/font_1031158_u69w8yhxdu.woff?t=1630033759944") format("woff"), url("//at.alicdn.com/t/font_1031158_u69w8yhxdu.ttf?t=1630033759944") format("truetype"); }
</style></defs><path d="M837.818182 465.454545c-13.963636 0-27.927273 2.327273-41.890909 4.654546L707.490909 232.727273h13.963636c13.963636 0 23.272727 9.309091 23.272728 23.272727s9.309091 23.272727 23.272727 23.272727 23.272727-9.309091 23.272727-23.272727c0-39.563636-30.254545-69.818182-69.818182-69.818182h-46.545454c-6.981818 0-13.963636 4.654545-18.618182 9.309091-4.654545 6.981818-6.981818 13.963636-2.327273 20.945455l58.181819 155.927272H351.418182l-37.236364-51.2c-4.654545-4.654545-2.327273-11.636364 0-11.636363 0-2.327273 4.654545-6.981818 11.636364-6.981818 13.963636 0 23.272727-9.309091 23.272727-23.272728s-9.309091-23.272727-23.272727-23.272727h-93.090909c-13.963636 0-23.272727 9.309091-23.272728 23.272727s9.309091 23.272727 23.272728 23.272728h34.909091c-2.327273 16.290909 0 32.581818 9.309091 46.545454l25.6 37.236364-67.49091 107.054545-2.327272 2.327273-90.763637 144.290909c-6.981818 11.636364-4.654545 25.6 6.981819 32.581818 4.654545 0 9.309091 2.327273 13.963636 2.327273 6.981818 0 16.290909-4.654545 18.618182-11.636364l81.454545-128c32.581818 20.945455 53.527273 55.854545 60.509091 93.090909H256c-13.963636 0-23.272727 9.309091-23.272727 23.272728s9.309091 23.272727 23.272727 23.272727h214.109091c6.981818 18.618182 23.272727 34.909091 41.890909 41.890909V744.727273c0 13.963636 9.309091 23.272727 23.272727 23.272727s23.272727-9.309091 23.272728-23.272727v-27.927273c27.927273-9.309091 46.545455-34.909091 46.545454-65.163636s-18.618182-55.854545-46.545454-65.163637V558.545455c0-13.963636-9.309091-23.272727-23.272728-23.272728s-23.272727 9.309091-23.272727 23.272728v27.927272c-18.618182 6.981818-34.909091 23.272727-41.890909 41.890909h-100.072727c-6.981818-53.527273-37.236364-102.4-81.454546-132.654545l44.218182-69.818182 88.436364 123.345455c4.654545 6.981818 11.636364 9.309091 18.618181 9.309091 4.654545 0 9.309091-2.327273 13.963637-4.654546 9.309091-6.981818 11.636364-23.272727 4.654545-32.581818L386.327273 418.909091h309.527272l-86.10909 102.4c-9.309091 9.309091-6.981818 25.6 2.327272 32.581818 4.654545 4.654545 9.309091 4.654545 13.963637 4.654546 6.981818 0 13.963636-2.327273 18.618181-9.309091l90.763637-107.054546 79.127273 216.436364c2.327273 9.309091 11.636364 16.290909 20.945454 16.290909 2.327273 0 4.654545 0 6.981818-2.327273 11.636364-4.654545 18.618182-18.618182 13.963637-30.254545l-46.545455-128c11.636364-2.327273 18.618182-2.327273 27.927273-2.327273 76.8 0 139.636364 62.836364 139.636363 139.636364s-62.836364 139.636364-139.636363 139.636363-139.636364-62.836364-139.636364-139.636363c0-32.581818 11.636364-65.163636 34.909091-90.763637 9.309091-9.309091 6.981818-23.272727-2.327273-32.581818-9.309091-9.309091-23.272727-6.981818-32.581818 2.327273-30.254545 34.909091-46.545455 76.8-46.545454 123.345454 0 102.4 83.781818 186.181818 186.181818 186.181819s186.181818-83.781818 186.181818-186.181819-83.781818-188.509091-186.181818-188.509091z m-302.545455 162.909091c13.963636 0 23.272727 9.309091 23.272728 23.272728s-9.309091 23.272727-23.272728 23.272727-23.272727-9.309091-23.272727-23.272727 9.309091-23.272727 23.272727-23.272728z" p-id="13037"></path><path d="M337.454545 716.8c-11.636364-6.981818-25.6-2.327273-32.581818 6.981818C279.272727 765.672727 235.054545 791.272727 186.181818 791.272727c-76.8 0-139.636364-62.836364-139.636363-139.636363 0-72.145455 53.527273-132.654545 125.672727-139.636364 11.636364-2.327273 23.272727-11.636364 20.945454-25.6-2.327273-11.636364-11.636364-23.272727-25.6-20.945455-95.418182 11.636364-167.563636 90.763636-167.563636 186.181819 0 102.4 83.781818 186.181818 186.181818 186.181818 65.163636 0 125.672727-32.581818 160.581818-90.763637 4.654545-11.636364 2.327273-25.6-9.309091-30.254545z" p-id="13038"></path></svg>