<?xml version="1.0" standalone="no"?><!DOCTYPE svg PUBLIC "-//W3C//DTD SVG 1.1//EN" "http://www.w3.org/Graphics/SVG/1.1/DTD/svg11.dtd"><svg t="1658132407546" class="icon" viewBox="0 0 1024 1024" version="1.1" xmlns="http://www.w3.org/2000/svg" p-id="14115" xmlns:xlink="http://www.w3.org/1999/xlink" width="128" height="128"><defs><style type="text/css">@font-face { font-family: feedback-iconfont; src: url("//at.alicdn.com/t/font_1031158_u69w8yhxdu.woff2?t=1630033759944") format("woff2"), url("//at.alicdn.com/t/font_1031158_u69w8yhxdu.woff?t=1630033759944") format("woff"), url("//at.alicdn.com/t/font_1031158_u69w8yhxdu.ttf?t=1630033759944") format("truetype"); }
</style></defs><path d="M643.072 380.928v65.536H446.464c-36.864 0.683008-67.755008 13.483008-92.672 38.4S316.075008 540.672 315.392 577.536v131.072c0.683008 36.864 13.483008 67.755008 38.4 92.672S409.6 838.996992 446.464 839.68h327.68c36.864-0.683008 67.755008-13.483008 92.672-38.4S904.532992 745.472 905.216 708.608V577.536c0-23.892992-5.803008-45.739008-17.408-65.536s-27.648-35.84-48.128-48.128v-71.68c38.912 14.336 70.315008 37.888 94.208 70.656s36.180992 70.996992 36.864 114.688v131.072c-1.364992 55.979008-20.48 102.4-57.344 139.264s-83.284992 55.979008-139.264 57.344H446.464c-55.979008-1.364992-102.4-20.48-139.264-57.344s-55.979008-83.284992-57.344-139.264V577.536c1.364992-55.979008 20.48-102.4 57.344-139.264s83.284992-55.979008 139.264-57.344h196.608zM380.928 643.072v-65.536h196.608c36.864-0.683008 67.755008-13.483008 92.672-38.4S707.924992 483.328 708.608 446.464V315.392c-0.683008-36.864-13.483008-67.755008-38.4-92.672S614.4 185.003008 577.536 184.32H249.856c-36.864 0.683008-67.755008 13.483008-92.672 38.4S119.467008 278.528 118.784 315.392v131.072c0 23.892992 5.803008 45.739008 17.408 65.536s27.648 35.84 48.128 48.128v71.68c-39.595008-14.336-71.168-38.228992-94.72-71.68S53.931008 488.788992 53.248 446.464V315.392c1.364992-55.979008 20.48-102.4 57.344-139.264s83.284992-55.979008 139.264-57.344h327.68c55.979008 1.364992 102.4 20.48 139.264 57.344s55.979008 83.284992 57.344 139.264v131.072c-1.364992 55.979008-20.48 102.4-57.344 139.264s-83.284992 55.979008-139.264 57.344H380.928z" p-id="14116"></path></svg>