<?xml version="1.0" standalone="no"?><!DOCTYPE svg PUBLIC "-//W3C//DTD SVG 1.1//EN" "http://www.w3.org/Graphics/SVG/1.1/DTD/svg11.dtd"><svg t="1658132208400" class="icon" viewBox="0 0 1024 1024" version="1.1" xmlns="http://www.w3.org/2000/svg" p-id="13345" xmlns:xlink="http://www.w3.org/1999/xlink" width="128" height="128"><defs><style type="text/css">@font-face { font-family: feedback-iconfont; src: url("//at.alicdn.com/t/font_1031158_u69w8yhxdu.woff2?t=1630033759944") format("woff2"), url("//at.alicdn.com/t/font_1031158_u69w8yhxdu.woff?t=1630033759944") format("woff"), url("//at.alicdn.com/t/font_1031158_u69w8yhxdu.ttf?t=1630033759944") format("truetype"); }
</style></defs><path d="M430.22336 954.368c-13.652992-0.683008-25.088-5.632-34.304-14.848s-13.824-20.651008-13.824-34.304c0-13.652992 4.608-25.088 13.824-34.304s20.651008-13.824 34.304-13.824c13.652992 0 25.088 4.608 34.304 13.824s13.824 20.651008 13.824 34.304c0 13.652992-4.608 25.088-13.824 34.304s-20.651008 14.164992-34.304 14.848z m327.68 0c-13.652992-0.683008-25.088-5.632-34.304-14.848s-13.824-20.651008-13.824-34.304c0-13.652992 4.608-25.088 13.824-34.304s20.651008-13.824 34.304-13.824c13.652992 0 25.088 4.608 34.304 13.824s13.824 20.651008 13.824 34.304c0 13.652992-4.608 25.088-13.824 34.304s-20.651008 14.164992-34.304 14.848z m-671.744-819.2c-9.556992 0-17.408-3.072-23.552-9.216s-9.216-13.995008-9.216-23.552 3.072-17.408 9.216-23.552 13.995008-9.216 23.552-9.216h163.84c8.192 0 15.188992 2.388992 20.992 7.168s9.387008 11.264 10.752 19.456l34.816 169.984h621.568c10.24 0 18.603008 4.096 25.088 12.288 6.484992 8.192 8.704 17.408 6.656 27.648l-98.304 458.752c-1.364992 7.508992-4.948992 13.652992-10.752 18.432s-12.8 7.168-20.992 7.168h-458.752c-8.192 0-15.188992-2.388992-20.992-7.168s-9.387008-11.264-10.752-19.456l-125.952-628.736h-137.216z m321.536 589.824h405.504l83.968-393.216h-568.32l78.848 393.216z m296.96-458.752l-94.208-112.64-94.208 112.64h188.416z m-144.384-154.624c12.971008-15.019008 29.696-22.528 50.176-22.528s37.204992 7.508992 50.176 22.528l183.296 220.16h-466.944l183.296-220.16z" p-id="13346"></path></svg>