<?xml version="1.0" standalone="no"?><!DOCTYPE svg PUBLIC "-//W3C//DTD SVG 1.1//EN" "http://www.w3.org/Graphics/SVG/1.1/DTD/svg11.dtd"><svg t="1658132333931" class="icon" viewBox="0 0 1024 1024" version="1.1" xmlns="http://www.w3.org/2000/svg" p-id="13653" xmlns:xlink="http://www.w3.org/1999/xlink" width="128" height="128"><defs><style type="text/css">@font-face { font-family: feedback-iconfont; src: url("//at.alicdn.com/t/font_1031158_u69w8yhxdu.woff2?t=1630033759944") format("woff2"), url("//at.alicdn.com/t/font_1031158_u69w8yhxdu.woff?t=1630033759944") format("woff"), url("//at.alicdn.com/t/font_1031158_u69w8yhxdu.ttf?t=1630033759944") format("truetype"); }
</style></defs><path d="M708.608 315.392v98.304c0 9.556992-3.072 17.408-9.216 23.552s-13.995008 9.216-23.552 9.216h-32.768V315.392H380.928v131.072h-32.768c-9.556992 0-17.408-3.072-23.552-9.216s-9.216-13.995008-9.216-23.552v-98.304H184.32v589.824h655.36V315.392H708.608z m-393.216-65.536c1.364992-55.979008 20.48-102.4 57.344-139.264s83.284992-55.979008 139.264-57.344c55.979008 1.364992 102.4 20.48 139.264 57.344s55.979008 83.284992 57.344 139.264h163.84c9.556992 0 17.408 3.072 23.552 9.216s9.216 13.995008 9.216 23.552v655.36c0 9.556992-3.072 17.408-9.216 23.552s-13.995008 9.216-23.552 9.216H151.552c-9.556992 0-17.408-3.072-23.552-9.216s-9.216-13.995008-9.216-23.552V282.624c0-9.556992 3.072-17.408 9.216-23.552s13.995008-9.216 23.552-9.216h163.84z m65.536 0h262.144c-0.683008-36.864-13.483008-67.755008-38.4-92.672S548.864 119.467008 512 118.784c-36.864 0.683008-67.755008 13.483008-92.672 38.4S381.611008 212.992 380.928 249.856zM184.32 708.608h655.36v65.536H184.32v-65.536z" p-id="13654"></path></svg>